<?xml version="1.0" encoding="UTF-8" standalone="no"?>
<svg
   xmlns:dc="http://purl.org/dc/elements/1.1/"
   xmlns:cc="http://creativecommons.org/ns#"
   xmlns:rdf="http://www.w3.org/1999/02/22-rdf-syntax-ns#"
   xmlns:svg="http://www.w3.org/2000/svg"
   xmlns="http://www.w3.org/2000/svg"
   xmlns:sodipodi="http://sodipodi.sourceforge.net/DTD/sodipodi-0.dtd"
   xmlns:inkscape="http://www.inkscape.org/namespaces/inkscape"
   version="1.1"
   style="font-size:12px;font-family:'lucida grande', 'lucida sans unicode', arial, helvetica, sans-serif"
   width="686.32794"
   height="338.00104"
   id="svg77"
   sodipodi:docname="100-0.svg"
   inkscape:version="0.92.3 (2405546, 2018-03-11)">
  <metadata
     id="metadata81">
    <rdf:RDF>
      <cc:Work
         rdf:about="">
        <dc:format>image/svg+xml</dc:format>
        <dc:type
           rdf:resource="http://purl.org/dc/dcmitype/StillImage" />
        <dc:title></dc:title>
      </cc:Work>
    </rdf:RDF>
  </metadata>
  <sodipodi:namedview
     pagecolor="#ffffff"
     bordercolor="#666666"
     borderopacity="1"
     objecttolerance="10"
     gridtolerance="10"
     guidetolerance="10"
     inkscape:pageopacity="0"
     inkscape:pageshadow="2"
     inkscape:window-width="1920"
     inkscape:window-height="1043"
     id="namedview79"
     showgrid="false"
     inkscape:zoom="0.54"
     inkscape:cx="-52.083074"
     inkscape:cy="192.33526"
     inkscape:window-x="0"
     inkscape:window-y="0"
     inkscape:window-maximized="1"
     inkscape:current-layer="svg77"
     fit-margin-top="10"
     fit-margin-left="10"
     fit-margin-right="10"
     fit-margin-bottom="10" />
  <desc
     id="desc2">Created with Highcharts 4.2.7</desc>
  <defs
     id="defs7">
    <clipPath
       id="highcharts-15">
      <rect
         x="1"
         y="1"
         width="578"
         height="335"
         id="rect4" />
    </clipPath>
  </defs>
  <path
     style="opacity:1;fill:#0000ff;fill-opacity:1;stroke:#000000;stroke-width:0;stroke-miterlimit:4;stroke-dasharray:none;stroke-dashoffset:0;stroke-opacity:1"
     id="path2790"
     sodipodi:type="arc"
     sodipodi:cx="385.37393"
     sodipodi:cy="169.06544"
     sodipodi:rx="159"
     sodipodi:ry="159"
     sodipodi:start="0.0021531778"
     sodipodi:end="0.0012404456"
     sodipodi:open="true"
     d="M 544.37356,169.4078 A 159,159 0 0 1 385.06786,328.06515 159,159 0 0 1 226.37416,168.79565 159,159 0 0 1 385.60744,10.065616 159,159 0 0 1 544.37381,169.26268" />
  <g
     class="highcharts-tooltip"
     display="none"
     style="white-space:nowrap;display:none"
     id="g73"
     transform="translate(27.693335,-9.9999997)">
    <path
       d="m 3.5,0.5 h 10 c 3,0 3,0 3,3 v 10 c 0,3 0,3 -3,3 h -10 c -3,0 -3,0 -3,-3 v -10 c 0,-3 0,-3 3,-3"
       transform="translate(1,1)"
       id="path63"
       inkscape:connector-curvature="0"
       style="fill:none;stroke:#000000;stroke-width:5;stroke-opacity:0.05" />
    <path
       d="m 3.5,0.5 h 10 c 3,0 3,0 3,3 v 10 c 0,3 0,3 -3,3 h -10 c -3,0 -3,0 -3,-3 v -10 c 0,-3 0,-3 3,-3"
       transform="translate(1,1)"
       id="path65"
       inkscape:connector-curvature="0"
       style="fill:none;stroke:#000000;stroke-width:3;stroke-opacity:0.1" />
    <path
       d="m 3.5,0.5 h 10 c 3,0 3,0 3,3 v 10 c 0,3 0,3 -3,3 h -10 c -3,0 -3,0 -3,-3 v -10 c 0,-3 0,-3 3,-3"
       transform="translate(1,1)"
       id="path67"
       inkscape:connector-curvature="0"
       style="fill:none;stroke:#000000;stroke-width:1;stroke-opacity:0.15" />
    <path
       d="m 3.5,0.5 h 10 c 3,0 3,0 3,3 v 10 c 0,3 0,3 -3,3 h -10 c -3,0 -3,0 -3,-3 v -10 c 0,-3 0,-3 3,-3"
       id="path69"
       inkscape:connector-curvature="0"
       style="fill:#f9f9f9;fill-opacity:0.85" />
    <text
       x="8"
       style="color:#000000;font-size:12px;fill:#000000"
       y="20"
       id="text71" />
  </g>
  <text
     xml:space="preserve"
     style="font-style:normal;font-variant:normal;font-weight:normal;font-stretch:normal;font-size:26.66666603px;line-height:125%;font-family:'Source Sans Pro';-inkscape-font-specification:'Source Sans Pro';letter-spacing:0px;word-spacing:0px;fill:#000000;fill-opacity:1;stroke:none;stroke-width:1px;stroke-linecap:butt;stroke-linejoin:miter;stroke-opacity:1"
     x="10.026667"
     y="144.42545"
     id="text2659"><tspan
       sodipodi:role="line"
       id="tspan2657"
       x="10.026667"
       y="144.42545"
       style="font-style:normal;font-variant:normal;font-weight:bold;font-stretch:normal;font-family:'Source Sans Pro';-inkscape-font-specification:'Source Sans Pro Bold'">0%</tspan><tspan
       sodipodi:role="line"
       x="10.026667"
       y="177.75877"
       id="tspan2661">Your contribution</tspan><tspan
       sodipodi:role="line"
       x="10.026667"
       y="211.09212"
       id="tspan2663"> to the business</tspan></text>
  <text
     xml:space="preserve"
     style="font-style:normal;font-variant:normal;font-weight:normal;font-stretch:normal;font-size:26.66666603px;line-height:125%;font-family:'Source Sans Pro';-inkscape-font-specification:'Source Sans Pro';letter-spacing:0px;word-spacing:0px;fill:#000000;fill-opacity:1;stroke:none;stroke-width:1px;stroke-linecap:butt;stroke-linejoin:miter;stroke-opacity:1"
     x="567.37463"
     y="141.85211"
     id="text2659-0"><tspan
       sodipodi:role="line"
       id="tspan2657-8"
       x="567.37463"
       y="141.85211"
       style="font-style:normal;font-variant:normal;font-weight:bold;font-stretch:normal;font-family:'Source Sans Pro';-inkscape-font-specification:'Source Sans Pro Bold'">100%</tspan><tspan
       sodipodi:role="line"
       x="567.37463"
       y="175.18544"
       id="tspan2663-3">Managing</tspan><tspan
       sodipodi:role="line"
       x="567.37463"
       y="208.51878"
       id="tspan2691">5 people</tspan></text>
</svg>
